<?xml version="1.0" encoding="UTF-8" standalone="no"?>
<svg
   xmlns:dc="http://purl.org/dc/elements/1.1/"
   xmlns:cc="http://creativecommons.org/ns#"
   xmlns:rdf="http://www.w3.org/1999/02/22-rdf-syntax-ns#"
   xmlns:svg="http://www.w3.org/2000/svg"
   xmlns="http://www.w3.org/2000/svg"
   id="svg818"
   preserveAspectRatio="xMidYMid meet"
   viewBox="0 0 9600 600"
   height="60px"
   width="960px"
   version="1.0">
  <metadata
     id="metadata824">
    <rdf:RDF>
      <cc:Work
         rdf:about="">
        <dc:format>image/svg+xml</dc:format>
        <dc:type
           rdf:resource="http://purl.org/dc/dcmitype/StillImage" />
        <dc:title></dc:title>
      </cc:Work>
    </rdf:RDF>
  </metadata>
  <defs
     id="defs822" />
  <g
     style="fill:#99042e;stroke:none"
     id="layer101">
    <path
       id="path815"
       d="m 0,518 1,-83 93,-57 c 51,-32 129,-73 173,-91 44,-19 125,-61 180,-94 55,-33 115,-65 134,-71 37,-12 513,-10 564,2 17,4 60,17 98,29 67,21 68,21 165,2 53,-10 141,-31 196,-47 87,-26 107,-29 180,-23 96,8 211,-14 266,-50 51,-34 150,-44 187,-19 16,11 39,21 53,24 14,3 29,15 35,27 5,13 22,27 37,32 16,6 31,17 34,26 9,21 41,19 54,-5 8,-15 17,-18 43,-13 17,3 40,10 50,15 12,6 35,2 75,-13 88,-33 191,-29 316,12 l 100,32 92,-18 c 76,-15 109,-16 191,-9 152,14 442,9 598,-10 77,-9 238,-33 358,-52 325,-53 394,-46 580,60 126,72 125,72 267,31 150,-43 199,-69 207,-108 l 6,-29 69,7 c 38,4 101,16 141,27 39,10 142,34 227,53 187,41 510,121 565,140 39,13 153,34 540,96 227,36 439,48 845,49 565,0 897,-30 1225,-110 116,-28 258,-67 317,-85 85,-28 131,-36 223,-41 l 115,-7 V 373 600 H 4800 0 Z" />
  </g>
</svg>
